<svg xmlns="http://www.w3.org/2000/svg" width="49.401" height="30.875" viewBox="0 0 49.401 30.875"><defs><style>.a{fill:#3957a7;}.b{fill:#fff;}.c{fill:#f9a533;}</style></defs><path class="a" d="M4.18,0H45.221A4.18,4.18,0,0,1,49.4,4.18V26.693a4.182,4.182,0,0,1-4.182,4.182H4.182A4.182,4.182,0,0,1,0,26.694V4.18A4.18,4.18,0,0,1,4.18,0Z" transform="translate(0 0)"/><g transform="translate(9.913 10.641)"><path class="b" d="M941.565,165.348h-2.413l1.508-9.269h2.413Z" transform="translate(-928.745 -155.913)"/><path class="b" d="M921.105,156.079l-2.3,6.375-.272-1.373h0l-.812-4.168a1.033,1.033,0,0,0-1.145-.835h-3.8l-.044.157a9.016,9.016,0,0,1,2.524,1.059l2.1,8.053h2.515l3.84-9.269Z" transform="translate(-912.728 -155.913)"/><path class="b" d="M972.39,165.348h2.215l-1.931-9.269h-1.94a1.11,1.11,0,0,0-1.115.69l-3.6,8.578h2.516l.5-1.377h3.068Zm-2.655-3.278L971,158.6l.714,3.469Z" transform="translate(-945.031 -155.913)"/><path class="b" d="M955.926,158.053l.344-1.991a6.962,6.962,0,0,0-2.17-.4c-1.2,0-4.041.523-4.041,3.068,0,2.4,3.338,2.425,3.338,3.682s-2.994,1.033-3.982.24l-.359,2.081a6.759,6.759,0,0,0,2.724.524c1.647,0,4.131-.853,4.131-3.173,0-2.41-3.368-2.635-3.368-3.683S954.893,157.484,955.926,158.053Z" transform="translate(-934.747 -155.658)"/></g><path class="c" d="M918.532,161.082l-.812-4.168a1.033,1.033,0,0,0-1.145-.835h-3.8l-.044.157a9.357,9.357,0,0,1,3.581,1.8A7.234,7.234,0,0,1,918.532,161.082Z" transform="translate(-902.815 -145.273)"/></svg>