<svg xmlns="http://www.w3.org/2000/svg" width="49.401" height="30.875" viewBox="0 0 49.401 30.875"><defs><style>.a{fill:#13457c;}.b{fill:#fbb231;}.b,.c,.d{fill-rule:evenodd;}.c{fill:#ec1c2e;}.d{fill:#fff;}.e{fill:none;stroke:#fff;stroke-miterlimit:2.613;stroke-width:0.216px;}</style></defs><path class="a" d="M4.18,0H45.221A4.18,4.18,0,0,1,49.4,4.18V26.693a4.182,4.182,0,0,1-4.182,4.182H4.182A4.182,4.182,0,0,1,0,26.694V4.18A4.18,4.18,0,0,1,4.18,0Z" transform="translate(0 0)"/><g transform="translate(9.892 6.575)"><path class="b" d="M1114.014,163.061l.458-.012.452-.033.442-.056.44-.078.428-.1.422-.12.412-.141.4-.158.395-.179.383-.194.371-.216.361-.23.347-.248.335-.263.323-.278.308-.3.3-.308.278-.323.264-.334.248-.347.23-.362.215-.371.194-.383.179-.394.158-.4.141-.413.12-.421.1-.428.078-.439.057-.443.033-.451.011-.457-.011-.454-.033-.448-.057-.442-.078-.434-.1-.427-.12-.419-.141-.412-.158-.4-.179-.391-.194-.383-.215-.368-.23-.362-.248-.347-.264-.332-.278-.323-.3-.308-.308-.293-.323-.278-.335-.263-.347-.248-.361-.23-.371-.212-.383-.194-.395-.18-.4-.158-.412-.14-.422-.12-.428-.1-.44-.077-.442-.057-.452-.033-.458-.012-.454.012-.452.033-.442.057-.437.077-.428.1-.422.12-.409.14-.4.158-.392.18-.379.194-.371.212-.359.23-.346.248-.335.263-.32.278-.308.293-.293.308-.278.323-.263.332-.245.347-.231.362-.211.368-.2.383-.176.391-.159.4-.138.412-.119.419-.1.427-.078.434-.056.442-.033.448-.012.454.012.457.033.451.056.443.078.439.1.428.119.421.138.413.159.4.176.394.2.383.211.371.231.362.245.347.263.334.278.323.293.308.308.3.32.278.335.263.346.248.359.23.371.216.379.194.392.179.4.158.409.141.422.12.428.1.437.078.442.056.452.033.454.012Z" transform="translate(-1093.279 -145.335)"/><path class="c" d="M1083.86,163.061l.454-.012.452-.033.443-.056.436-.078.428-.1.421-.12.41-.141.4-.158.391-.179.38-.194.37-.216.359-.23.347-.248.335-.263.32-.278.308-.3.293-.308.278-.323.262-.334.245-.347.23-.362.212-.371.2-.383.176-.394.158-.4.138-.413.119-.421.1-.428.077-.439.058-.443.032-.451.012-.457-.012-.454-.032-.448-.058-.442-.077-.434-.1-.427-.119-.419-.138-.412-.158-.4-.176-.391-.2-.383-.212-.368-.23-.362-.245-.347-.262-.332-.278-.323-.293-.308-.308-.293-.32-.278-.335-.263-.347-.248-.359-.23-.37-.212-.38-.194-.391-.18-.4-.158-.41-.14-.421-.12-.428-.1-.436-.077-.443-.057-.452-.033-.454-.012-.458.012-.452.033-.442.057-.44.077-.427.1-.422.12-.413.14-.4.158-.395.18-.382.194-.371.212-.362.23-.347.248-.335.263-.323.278-.308.293-.3.308-.278.323-.263.332-.249.347-.23.362-.215.368-.194.383-.18.391-.158.4-.141.412-.12.419-.1.427-.078.434-.057.442-.033.448-.012.454.012.457.033.451.057.443.078.439.1.428.12.421.141.413.158.4.18.394.194.383.215.371.23.362.249.347.263.334.278.323.3.308.308.3.323.278.335.263.347.248.362.23.371.216.382.194.395.179.4.158.413.141.422.12.427.1.44.078.442.056.452.033.458.012Z" transform="translate(-1074.98 -145.335)"/><path class="b" d="M1109.943,153.226h4.709v-.482h-4.3l-.406.482Z" transform="translate(-1096.173 -149.826)"/><path class="b" d="M1108.152,155.942h5.415v-.482h-5.131l-.284.482Z" transform="translate(-1095.088 -151.473)"/><path class="b" d="M1106.814,158.653h5.942v-.482h-5.732l-.21.482Z" transform="translate(-1094.277 -153.116)"/><path class="b" d="M1105.9,161.371h6.3v-.481h-6.153l-.15.481Z" transform="translate(-1093.72 -154.764)"/><path class="b" d="M1106.2,174.5h6.108v-.481h-6.258l.15.481Z" transform="translate(-1093.813 -162.723)"/><path class="b" d="M1107.23,177.22h5.657v-.481h-5.881l.224.481Z" transform="translate(-1094.393 -164.371)"/><path class="b" d="M1108.718,179.93h5.023v-.481h-5.325l.3.481Z" transform="translate(-1095.247 -166.013)"/><path class="b" d="M1110.752,182.643h4.15v-.484h-4.572l.422.484Z" transform="translate(-1096.408 -167.655)"/><path class="b" d="M1105.359,164.08h6.515V163.6h-6.422l-.092.481Z" transform="translate(-1093.395 -156.406)"/><path class="b" d="M1115.439,171.793h2.484v-.482h-2.395l-.089.482Z" transform="translate(-1099.505 -161.08)"/><path class="b" d="M1115.939,169.078h2.287v-.484h-2.2l-.09.484Z" transform="translate(-1099.808 -159.433)"/><path class="b" d="M1104.941,168.594h.645v.484h-.615l-.03-.484Z" transform="translate(-1093.141 -159.433)"/><path class="d" d="M1098.017,165.953l-.042,0-.042-.006-.039-.006-.038-.006-.036-.006-.038-.006-.039-.006-.042-.006-.042-.006-.048,0-.054,0-.056,0h-.063l-.069,0-.078.006-.086.006-.06.009-.057.009-.051.018-.045.018-.042.021-.039.024-.03.03-.027.027-.018.033-.015.033-.005.036v.036l.009.039.011.039.024.039.03.039.06.057.072.045.083.039.09.033.1.03.1.033.1.036.1.038.09.051.083.063.075.075.062.093.048.113.03.135.012.162-.012.188-.021.14-.036.122-.048.114-.06.1-.068.087-.078.074-.084.066-.092.057-.1.045-.1.039-.1.03-.1.024-.1.018-.1.009-.1.006-.092,0h-.129l-.12,0h-.1l-.1,0-.09,0-.081-.006-.071-.006-.068-.009-.063-.006-.057-.012-.056-.009-.052-.014-.051-.012-.048-.018-.048-.017-.051-.018.135-.661.027.006.033.009.042.012.051.013.054.012.059.012.066.015.072.012.075.012.078.012.082.009.083.009.087,0,.087,0h.087l.086,0,.087-.018.069-.024.054-.032.042-.042.029-.042.024-.048.016-.047.012-.045.006-.087-.027-.075-.051-.06-.075-.051-.089-.045-.105-.045-.116-.042-.117-.048-.119-.054-.114-.063-.1-.078-.1-.093-.075-.114-.053-.135-.027-.161,0-.191.015-.117.021-.111.03-.1.036-.1.048-.09.054-.078.063-.075.075-.065.087-.057.1-.048.108-.045.12-.033.134-.027.147-.021.161-.012.177,0h.11l.1,0,.093,0,.084,0,.075.006.069.006.059.006.054.006.051.006.042.009.04.006.035.006.029.006.028,0,.027.006.023,0-.152.675Z" transform="translate(-1087.422 -157.376)"/><path class="e" d="M1098.017,165.953h0l-.042,0-.042-.006-.039-.006-.038-.006-.036-.006-.038-.006-.039-.006-.042-.006-.042-.006-.048,0-.054,0-.056,0h-.063l-.069,0-.078.006-.086.006h0l-.06.009-.057.009-.051.018-.045.018-.042.021-.039.024-.03.03-.027.027-.018.033-.015.033-.005.036v.036l.009.039.011.039.024.039.03.039h0l.06.057.072.045.083.039.09.033.1.03.1.033.1.036.1.038.09.051.083.063.075.075.062.093.048.113.03.135.012.162-.012.188h0l-.021.14-.036.122-.048.114-.06.1-.068.087-.078.074-.084.066-.092.057-.1.045-.1.039-.1.03-.1.024-.1.018-.1.009-.1.006-.092,0h-.129l-.12,0h-.1l-.1,0-.09,0-.081-.006-.071-.006-.068-.009-.063-.006-.057-.012-.056-.009-.052-.014-.051-.012-.048-.018-.048-.017-.051-.018.135-.661h0l.027.006.033.009.042.012.051.013.054.012.059.012.066.015.072.012.075.012.078.012.082.009.083.009.087,0,.087,0h.087l.086,0h0l.087-.018.069-.024.054-.032.042-.042.029-.042.024-.048.016-.047.012-.045h0l.006-.087-.027-.075-.051-.06-.075-.051-.089-.045-.105-.045-.116-.042-.117-.048-.119-.054-.114-.063-.1-.078-.1-.093-.075-.114-.053-.135-.027-.161,0-.191h0l.015-.117.021-.111.03-.1.036-.1.048-.09.054-.078.063-.075.075-.065.087-.057.1-.048.108-.045.12-.033.134-.027.147-.021.161-.012.177,0h.11l.1,0,.093,0,.084,0,.075.006.069.006.059.006.054.006.051.006.042.009.04.006.035.006.029.006.028,0,.027.006.023,0-.152.675" transform="translate(-1087.422 -157.376)"/><path class="d" d="M1102.775,163.524h.828l-.122.723h.5l-.108.676-.526-.015-.287,1.668,0,.06.015.051.03.039.039.032.054.021.06.018.065.012.072.007.066,0,.06-.006.053-.009.049-.012.038-.012.027-.009.018-.006.006,0-.1.556-.021.015-.021.012-.021.012-.021.012-.021.009-.024.009-.027.009-.027.009-.03.009-.03.006-.035.006-.036.006-.039.006-.045.006-.048.006-.051.006h-.227l-.12-.009-.1-.012-.1-.018-.081-.021-.069-.027-.056-.029-.051-.036-.039-.039-.03-.042-.021-.051-.015-.051-.008-.056,0-.063v-.066l.009-.069.008-.075.572-3.261Z" transform="translate(-1091.471 -156.36)"/><path class="e" d="M1102.775,163.524h.828l-.122.723h.5l-.108.676-.526-.015-.287,1.668h0l0,.06.015.051.03.039.039.032.054.021.06.018.065.012.072.007h0l.066,0,.06-.006.053-.009.049-.012.038-.012.027-.009.018-.006.006,0-.1.556h0l-.021.015-.021.012-.021.012-.021.012-.021.009-.024.009-.027.009-.027.009-.03.009-.03.006-.035.006-.036.006-.039.006-.045.006-.048.006-.051.006h-.227l-.12-.009-.1-.012-.1-.018-.081-.021-.069-.027-.056-.029-.051-.036-.039-.039-.03-.042-.021-.051-.015-.051-.008-.056,0-.063v-.066l.009-.069.008-.075.572-3.261" transform="translate(-1091.471 -156.36)"/><path class="e" d="M1107.073,167.066h0l-.008.051,0,.054,0,.057.012.057.021.057.024.054.032.056.036.051.042.051.045.045.048.044.054.036.053.033.061.027.059.021.06.012h0l.078.012.074.009.078.009.079.006.077,0h.081l.078,0,.08-.006.081-.012.082-.015.083-.018.081-.027.084-.033.087-.036.083-.047.088-.051-.12.736h0l-.048.024-.048.024-.048.017-.045.018-.045.015-.048.015-.048.011-.051.009-.054.009-.06.006-.062.006-.069.006-.078,0H1108l-.092,0h-.1l-.147,0-.149-.015-.149-.021-.15-.036-.146-.044-.141-.057-.135-.074-.125-.087-.117-.1-.1-.122-.086-.138-.072-.158-.051-.176-.033-.2-.009-.221.015-.245h0l.012-.1.018-.111.024-.116.033-.126.045-.128.053-.129.069-.131.083-.126.1-.12.116-.113.132-.1.15-.09.173-.075.195-.054.215-.036.242-.012h0l.116,0,.123.012.122.021.123.03.12.045.116.054.108.072.1.083.09.1.075.12.06.137.041.159.024.179,0,.2-.021.227-.045.252-.015.182h-2.179l.138-.589h1.309l.006-.074,0-.072-.006-.066-.012-.059-.021-.057-.021-.051-.03-.045-.03-.042-.035-.036-.039-.03-.045-.027-.045-.024-.047-.017-.049-.012-.051-.009-.053-.006h0l-.058,0-.053.009-.051.012-.051.017-.052.024-.045.027-.045.033-.038.036-.039.042-.036.045-.032.048-.028.051-.027.054-.021.06-.018.06-.012.063-.12.619" transform="translate(-1093.905 -157.376)"/><path class="d" d="M1121.829,164.219l-.039-.021-.038-.018-.042-.021-.045-.021-.045-.018-.051-.018-.051-.018-.054-.018-.057-.015-.057-.012-.063-.012-.062-.009-.068-.006-.069-.006h-.221l-.079.006-.08.009-.085.015-.083.024-.084.033-.083.042-.085.053-.081.066-.078.078-.075.1-.072.111-.066.131-.062.149-.056.168-.048.191-.018.107-.012.1-.006.1,0,.1.009.1.021.1.027.09.033.09.045.081.054.077.063.069.072.063.081.054.092.045.1.039.115.027.038.009.045.009.054.006.06.006.065.006h.144l.075-.006.078-.009.078-.015.075-.021.075-.024.074-.033.069-.039.062-.048.06-.054-.135.8-.018.015-.018.018-.024.021-.027.017-.032.024-.042.021-.048.021-.054.018-.068.021-.078.015-.09.012-.1.012-.116.006-.135,0-.152,0-.169-.009-.137-.015-.138-.03-.138-.045-.137-.06-.131-.071-.125-.09-.12-.1-.111-.119-.1-.135-.084-.149-.072-.167-.054-.183-.035-.2-.012-.212.006-.233.032-.248.025-.122.027-.12.029-.117.03-.111.033-.1.038-.1.039-.1.042-.093.045-.093.045-.087.051-.083.054-.078.054-.075.059-.072.06-.066.063-.063.068-.06.069-.057.072-.051.075-.048.08-.045.081-.038.084-.036.087-.033.092-.03.092-.024.1-.021.1-.018.1-.015.108-.012.108-.006.114,0,.1,0,.093.006.089.009.09.012.084.012.081.018.077.015.072.018.068.018.06.018.057.018.048.018.042.015.036.012.027.012.018.006-.15.828Z" transform="translate(-1101.529 -156.153)"/><path class="e" d="M1121.829,164.219h0l-.039-.021-.038-.018-.042-.021-.045-.021-.045-.018-.051-.018-.051-.018-.054-.018-.057-.015-.057-.012-.063-.012-.062-.009-.068-.006-.069-.006h-.221l-.079.006-.08.009-.085.015-.083.024-.084.033-.083.042-.085.053-.081.066-.078.078-.075.1-.072.111-.066.131-.062.149-.056.168-.048.191h0l-.018.107-.012.1-.006.1,0,.1.009.1.021.1.027.09.033.09.045.081.054.077.063.069.072.063.081.054.092.045.1.039.115.027h0l.038.009.045.009.054.006.06.006.065.006h.144l.075-.006.078-.009.078-.015.075-.021.075-.024.074-.033.069-.039.062-.048.06-.054-.135.8h0l-.018.015-.018.018-.024.021-.027.017-.032.024-.042.021-.048.021-.054.018-.068.021-.078.015-.09.012-.1.012-.116.006-.135,0-.152,0-.169-.009h0l-.137-.015-.138-.03-.138-.045-.137-.06-.131-.071-.125-.09-.12-.1-.111-.119-.1-.135-.084-.149-.072-.167-.054-.183-.035-.2-.012-.212.006-.233.032-.248h0l.025-.122.027-.12.029-.117.03-.111.033-.1.038-.1.039-.1.042-.093.045-.093.045-.087.051-.083.054-.078.054-.075.059-.072.06-.066.063-.063.068-.06.069-.057.072-.051.075-.048.08-.045.081-.038.084-.036.087-.033.092-.03.092-.024.1-.021.1-.018.1-.015.108-.012.108-.006.114,0h0l.1,0,.093.006.089.009.09.012.084.012.081.018.077.015.072.018.068.018.06.018.057.018.048.018.042.015.036.012.027.012.018.006-.15.828" transform="translate(-1101.529 -156.153)"/><path class="d" d="M1141,167.472h-.828l.06-.332v-.03l-.048.06-.05.053-.051.048-.054.042-.055.039-.054.032-.054.027-.057.027-.056.021-.057.015-.057.015-.06.009-.06.009-.057.006-.059,0h-.06l-.155-.012-.143-.033-.132-.051-.12-.068-.108-.087-.1-.1-.084-.111-.072-.125-.06-.135-.048-.14-.033-.147-.024-.153-.009-.152,0-.155.015-.152.027-.152.045-.177.055-.167.062-.152.075-.143.078-.135.089-.12.093-.107.1-.1.1-.087.111-.075.114-.066.113-.051.119-.042.12-.027.12-.018.123-.006.087,0,.083.009.078.015.072.021.068.024.06.026.06.033.054.033.048.035.045.039.038.039.036.039.03.039.028.039.023.036.019.036h0l.209-1.175h.813l-.676,3.91Z" transform="translate(-1113.336 -156.383)"/><path class="e" d="M1141,167.472h-.828l.06-.332v-.03h0l-.048.06-.05.053-.051.048-.054.042-.055.039-.054.032-.054.027-.057.027-.056.021-.057.015-.057.015-.06.009-.06.009-.057.006-.059,0h-.06l-.155-.012-.143-.033-.132-.051-.12-.068-.108-.087-.1-.1-.084-.111-.072-.125-.06-.135-.048-.14-.033-.147-.024-.153-.009-.152,0-.155.015-.152.027-.152h0l.045-.177.055-.167.062-.152.075-.143.078-.135.089-.12.093-.107.1-.1.1-.087.111-.075.114-.066.113-.051.119-.042.12-.027.12-.018.123-.006h0l.087,0,.083.009.078.015.072.021.068.024.06.026.06.033.054.033.048.035.045.039.038.039.036.039.03.039.028.039.023.036.019.036h0l.209-1.175h.813l-.676,3.91" transform="translate(-1113.336 -156.383)"/><path class="b" d="M1141.122,168.948l.084-.006.078-.018.072-.021.069-.033.062-.036.06-.045.056-.05.052-.054.045-.06.042-.066.039-.069.033-.071.029-.075.025-.077.021-.081.015-.081.015-.083.01-.087v-.081l0-.083-.009-.078-.012-.075-.021-.072-.024-.069-.03-.059-.035-.057-.039-.048-.045-.042-.051-.036-.055-.024-.056-.015-.063-.006-.081.006-.075.012-.068.024-.069.03-.06.039-.059.048-.051.051-.051.057-.045.065-.042.069-.039.072-.033.078-.029.081-.024.081-.024.086-.018.087-.015.132.007.143.021.146.038.141.06.123.078.1.1.066.12.024Z" transform="translate(-1114.816 -158.582)"/><path class="d" d="M1090.964,167.838l-.12.664h-.753l.021-.122.016-.111.011-.084.012-.045-.042.048-.048.048-.056.045-.063.042-.072.042-.075.036-.078.036-.08.03-.087.027-.087.021-.086.018-.09.012-.087.006-.086,0-.084-.009-.082-.012-.1-.027-.1-.03-.084-.039-.075-.045-.065-.048-.06-.054-.048-.057-.042-.059-.035-.063-.03-.066-.024-.065-.018-.066-.012-.069-.009-.069-.006-.066v-.066l.009-.117.018-.11.029-.1.039-.1.048-.1.054-.087.063-.083.072-.075.075-.069.084-.063.086-.057.09-.048.1-.041.1-.033.1-.027.1-.018h.006l.015,0,.021,0,.033,0,.036-.006.042,0,.045-.006.052-.006.051-.006.051-.006.054,0,.048-.006.048,0,.045,0,.042,0h.1l.072,0,.065,0h.065l.054,0,.042,0,.029,0h.009l.006-.021.018-.054.015-.063.005-.057-.012-.066-.027-.06-.036-.053-.048-.045-.057-.038-.062-.027-.072-.018-.078-.006-.084,0-.09,0h-.092l-.1,0-.1.006-.1.009-.1.009-.093.012-.089.012-.087.015-.078.015-.072.015-.066.018-.053.017-.042.021-.033.018.212-.72.066-.027.065-.024.072-.021.072-.015.072-.015.078-.012.078-.012.081-.006.084-.006.086,0,.09,0h.287l.1,0,.1,0,.084.006.09.015.093.021.095.027.092.036.091.042.089.051.084.057.075.066.066.072.06.08.045.09.03.1.018.1v.113l-.018.12-.3,1.578Z" transform="translate(-1083.018 -157.413)"/><path class="e" d="M1090.964,167.838l-.12.664h-.753l.021-.122.016-.111.011-.084.012-.045h0l-.042.048-.048.048-.056.045-.063.042-.072.042-.075.036-.078.036-.08.03-.087.027-.087.021-.086.018-.09.012-.087.006-.086,0-.084-.009-.082-.012h0l-.1-.027-.1-.03-.084-.039-.075-.045-.065-.048-.06-.054-.048-.057-.042-.059-.035-.063-.03-.066-.024-.065-.018-.066-.012-.069-.009-.069-.006-.066v-.066h0l.009-.117.018-.11.029-.1.039-.1.048-.1.054-.087.063-.083.072-.075.075-.069.084-.063.086-.057.09-.048.1-.041.1-.033.1-.027.1-.018h.006l.015,0,.021,0,.033,0,.036-.006.042,0,.045-.006.052-.006.051-.006.051-.006.054,0,.048-.006.048,0,.045,0,.042,0h.1l.072,0,.065,0h.065l.054,0,.042,0,.029,0h.009l.006-.021.018-.054.015-.063.005-.057h0l-.012-.066-.027-.06-.036-.053-.048-.045-.057-.038-.062-.027-.072-.018-.078-.006h0l-.084,0-.09,0h-.092l-.1,0-.1.006-.1.009-.1.009-.093.012-.089.012-.087.015-.078.015-.072.015-.066.018-.053.017-.042.021-.033.018.212-.72h0l.066-.027.065-.024.072-.021.072-.015.072-.015.078-.012.078-.012.081-.006.084-.006.086,0,.09,0h.287l.1,0,.1,0h0l.084.006.09.015.093.021.095.027.092.036.091.042.089.051.084.057.075.066.066.072.06.08.045.09.03.1.018.1v.113l-.018.12-.3,1.578" transform="translate(-1083.018 -157.413)"/><path class="c" d="M1091.675,169.74l0-.015-.012-.015-.018-.009-.03-.006-.033-.006-.039,0h-.09l-.049,0-.051.006-.048.006-.048.006-.045.006-.042.009-.035.009-.033.009-.021.006-.024.009-.033.012-.033.015-.039.018-.039.021-.042.021-.039.024-.042.03-.038.03-.036.036-.033.036-.03.038-.021.042-.018.048-.008.048,0,.1.015.081.029.06.039.045.045.03.051.018.048.009.048,0,.09,0,.081-.009.078-.012.068-.018.061-.021.056-.027.051-.027.045-.033.039-.03.035-.036.03-.033.024-.036.021-.036.018-.036.015-.033.008-.033.025-.086.021-.1.018-.1.015-.078Z" transform="translate(-1084.449 -160.096)"/><path class="d" d="M1077.934,167.449h-.813l.678-3.925h1.415l.134,2.329.978-2.329h1.477l-.694,3.925h-.813l.514-2.933h-.032l-1.217,2.933h-.918l-.005-.122-.021-.326-.027-.463-.03-.533-.03-.535L1078.5,165l-.021-.341-.006-.144h-.045l-.5,2.933Z" transform="translate(-1076.278 -156.36)"/><path class="e" d="M1077.934,167.449h-.813l.678-3.925h1.415l.134,2.329.978-2.329h1.477l-.694,3.925h-.813l.514-2.933h-.032l-1.217,2.933h-.918l-.005-.122-.021-.326-.027-.463-.03-.533-.03-.535L1078.5,165l-.021-.341-.006-.144h-.045l-.5,2.933" transform="translate(-1076.278 -156.36)"/><path class="d" d="M1128.66,167.838l-.122.664h-.751l.006-.122,0-.107v-.081l.006-.036-.039.045-.045.045-.054.042-.059.042-.063.038-.072.036-.075.036-.075.03-.081.024-.083.024-.084.015-.083.012-.088.006-.083,0-.082-.009-.08-.012-.108-.027-.1-.03-.084-.039-.078-.045-.066-.048-.057-.054-.048-.057-.042-.059-.036-.063-.027-.066-.024-.065-.015-.066-.012-.069-.009-.069-.006-.066v-.066l.006-.117.018-.11.027-.1.038-.1.045-.1.058-.087.062-.083.068-.075.079-.069.08-.063.087-.057.092-.048.093-.041.1-.033.1-.027.1-.018h.006l.015,0,.021,0,.03,0,.038-.006.042,0,.045-.006.048-.006.051-.006.054-.006.051,0,.052-.006.048,0,.042,0,.042,0h.1l.072,0,.068,0h.066l.056,0,.048,0,.027,0h.012l.005-.021.009-.054.008-.063.006-.057-.012-.066-.023-.06L1128,166.1l-.045-.045-.053-.038-.063-.027-.066-.018-.072-.006-.084,0-.089,0h-.093l-.1,0-.1.006-.1.009-.1.009-.093.012-.089.012-.087.015-.077.015-.072.015-.066.018-.054.017-.042.021-.033.018.21-.72.065-.027.069-.024.068-.021.072-.015.075-.015.075-.012.078-.012.081-.006.084-.006.087,0,.086,0h.281l.1,0,.1,0,.084.006.09.015.092.021.1.027.092.036.092.042.09.051.084.057.075.066.069.072.059.08.045.09.033.1.021.1v.113l-.015.12-.314,1.578Z" transform="translate(-1105.876 -157.413)"/><path class="d" d="M1132.491,172.485l.018-.018.122-.664-.036-.006-.122.664.018-.018v.042l.015,0,0-.015-.018.018Z" transform="translate(-1109.829 -161.375)"/><path class="d" d="M1130.563,173.457l.018.021h.751v-.042h-.751l.018.021h-.036l0,.021h.021l-.018-.021Z" transform="translate(-1108.67 -162.369)"/><path class="d" d="M1130.615,172.6l-.027-.023-.012.048,0,.081v.107l-.006.122h.036l.006-.122.006-.107,0-.081V172.6l-.026-.023.03.023Z" transform="translate(-1108.674 -161.849)"/><path class="d" d="M1127.736,172.986h0l.083.012.082.009.083,0,.088-.006.086-.012.084-.015.083-.023.084-.024.075-.03.078-.036.072-.036.063-.042.063-.042.054-.041.048-.048.039-.045-.03-.023-.039.045-.042.042-.054.042-.057.042-.063.036-.072.036-.072.036-.075.03-.078.024-.083.024-.084.015-.08.012-.088.006-.083,0-.082-.009-.078-.012h0l-.005.036Z" transform="translate(-1106.958 -161.849)"/><path class="d" d="M1125.9,171.311h0l0,.066.006.066.008.072.012.069.015.066.024.069.027.069.038.063.042.063.048.057.06.057.068.048.078.048.087.038.1.03.109.027.005-.036-.107-.027-.092-.03-.082-.038-.078-.042-.063-.047-.054-.051-.048-.057-.042-.057-.032-.062-.028-.063-.024-.062-.015-.066-.012-.069-.008-.066-.006-.066,0-.066h-.042Z" transform="translate(-1105.844 -161.08)"/><path class="d" d="M1126.972,168.4h0l-.1.018-.1.027-.1.033-.1.042-.093.048-.09.06-.08.063-.078.072-.072.075-.062.084-.06.09-.045.1-.039.1-.027.108-.018.113-.009.117h.042l0-.117.018-.107.027-.1.039-.1.045-.093.054-.084.063-.084.065-.074.077-.066.082-.063.083-.053.093-.048.089-.041.1-.033.1-.027.1-.018h0V168.4Z" transform="translate(-1105.844 -159.314)"/><path class="d" d="M1129.239,168.237h-.033l-.042.006-.042,0-.048,0-.052.006-.051,0-.054.006-.051.006-.048.006-.045.006-.042,0-.039.006-.03,0-.024,0-.012,0h-.006v.036h.006l.018,0,.018,0,.03,0,.039-.006.042,0,.045-.006.048-.006.051-.006.054-.006.051,0,.052-.006.048,0,.042,0h.075v-.042Z" transform="translate(-1107.496 -159.217)"/><path class="d" d="M1130.591,168.27l.018-.015h-.012l-.027,0-.048,0-.056-.006h-.135l-.072-.006h-.072v.042h.144l.068.006h.122l.048,0,.027,0h.012l.017-.015-.017.015.015,0,0-.018-.035-.006Z" transform="translate(-1108.444 -159.217)"/><path class="d" d="M1131.243,167.835h0l0,.057-.009.06-.009.054-.006.021.035.006.006-.021.009-.054.009-.065.009-.057h-.039Z" transform="translate(-1109.066 -158.973)"/><path class="d" d="M1130.385,167.024v0l.069,0,.062.018.06.027.051.036.042.042.036.051.025.054.012.063h.035l-.011-.068-.024-.066-.042-.057-.048-.048-.057-.041-.066-.027-.068-.017-.075-.009v.039Z" transform="translate(-1108.564 -158.459)"/><path class="d" d="M1127.129,167.158l.03.018.03-.015.038-.021.051-.018.066-.017.072-.015.078-.015.087-.015.086-.012.093-.013.1-.009.1-.009.1-.006h.278l.084,0v-.036l-.084,0-.089-.006h-.093l-.1.006-.1.006-.1.009-.1.009-.093.012-.092.012-.087.015-.078.015-.072.015-.065.017-.057.018-.045.02-.036.021.031.018-.036-.006Z" transform="translate(-1106.59 -158.449)"/><path class="d" d="M1127.35,165.58l-.012.015-.209.721.036.006.208-.721-.011.015-.012-.036-.009,0,0,.012.012-.015Z" transform="translate(-1106.59 -157.607)"/><path class="d" d="M1129.021,165.218h0l-.1-.006-.1,0h-.282l-.086.006-.087,0-.084.006-.081.005-.081.012-.074.012-.075.015-.072.015-.072.021-.068.024-.065.027.011.036.066-.027.068-.024.065-.022.072-.015.075-.015.074-.012.075-.012.081-.006.084-.006.087,0h.368l.1,0h.1v-.036Z" transform="translate(-1106.931 -157.381)"/><path class="d" d="M1132.094,166.245h0l.015-.123v-.113l-.021-.1-.033-.1-.048-.092-.06-.084-.072-.075-.075-.066-.086-.057-.09-.053-.1-.042-.093-.036-.1-.027-.093-.021-.093-.015-.084-.006v.036l.084.006.086.015.093.021.093.027.092.036.089.042.09.048.081.057.075.066.065.069.06.077.042.088.033.093.021.1v.113l-.015.117h0l.036.006Z" transform="translate(-1108.978 -157.396)"/><path class="d" d="M1132.819,169.374h0l.314-1.578-.036-.006-.314,1.578h0l.036.006Z" transform="translate(-1110.017 -158.946)"/><path class="b" d="M1129.368,169.736l-.006-.018-.012-.015-.021-.009-.031-.009-.032,0-.039,0h-.045l-.045,0-.049.006-.047.006-.048.006-.045.006-.045.009-.039.006-.039.009-.03.006-.021,0-.024.009-.03.009-.033.012-.039.018-.036.018-.042.021-.038.026-.039.027-.039.033-.033.033-.033.039-.026.042-.021.045-.018.048-.009.051,0,.1.015.081.025.06.035.045.045.03.051.018.051.009.051,0,.089,0,.084-.009.078-.015.069-.021.065-.024.057-.027.054-.03.048-.036.042-.033.035-.039.033-.036.027-.039.021-.036.015-.036.012-.036.009-.033.012-.084.015-.087.012-.084.006-.075Z" transform="translate(-1107.308 -160.091)"/><path class="d" d="M1146.629,171.829l.006-.069.024-.081.042-.072.051-.063.062-.051.072-.036.078-.024.084-.009.084.009.077.024.072.036.062.051.051.063.042.072.025.081.006.069h-.09l0-.054-.018-.066-.03-.059-.039-.051-.048-.042-.056-.03-.066-.021-.069-.006-.068.006-.065.021-.058.03-.048.042-.038.051-.03.059-.018.066-.006.054Z" transform="translate(-1118.41 -161.15)"/><path class="d" d="M1147.313,172.175V172h.165l.036,0,.033.006.023.009.022.012.015.018.012.018.006.021,0,.021,0,.027-.006.021-.009.018-.006.006h-.125l.012,0,.021,0,.018-.006.015-.006.012-.009.006-.009.006-.014V172.1l0-.015-.005-.012-.01-.006-.008-.006-.015,0-.015,0h-.122v.117Z" transform="translate(-1118.824 -161.495)"/><path class="d" d="M1146.625,172.451l0,.017.008.087.024.081.042.072.051.06.062.05.072.04.078.024.084.009.084-.009.077-.024.072-.04.062-.05.051-.06.042-.072.025-.081.009-.087,0-.017h-.09l0,.017-.006.072-.018.066-.03.057-.039.05-.048.042-.056.032-.066.021-.069.006-.068-.006-.065-.021-.058-.032-.048-.042-.038-.05-.03-.057-.018-.066-.006-.072v-.017Z" transform="translate(-1118.406 -161.772)"/><path class="d" d="M1147.313,172.451v.182h.075v-.149h.075l.09.149h.059l-.089-.149h.021l.02-.006.019-.006.015-.012.005-.009h-.125l-.015,0h-.075v0Z" transform="translate(-1118.824 -161.772)"/><path class="e" d="M1146.623,171.847h0l.009-.087.024-.081.042-.072.05-.063.063-.05.071-.036.078-.024.084-.009h0l.085.009.077.024.072.036.062.05.051.063.042.072.024.081.01.087h0l-.01.087-.024.08-.042.072-.051.06-.062.05-.072.039-.077.024-.085.009h0l-.084-.009-.078-.024-.071-.039-.063-.05-.05-.06-.042-.072-.024-.08-.009-.087m.346.165h-.074v-.362h.164l.036,0,.033.006.023.009.022.012.014.018.011.018.006.02,0,.021h0l0,.027-.006.021-.008.018-.012.015-.016.012-.018.006-.02.006h-.021l.089.15h-.059l-.09-.15h-.075v.15m.075-.18h0l.027-.006.021,0,.018-.006.015-.006.012-.009.006-.009.006-.014v-.021h0l0-.015-.006-.012-.01-.006-.008-.006-.014,0-.016,0h-.123v.119h.075m0,.362h0l.069-.006.066-.021.056-.032.048-.043.039-.05.03-.057.018-.066.006-.072h0l-.006-.072-.018-.066-.03-.059-.039-.051-.048-.042-.056-.03-.066-.021-.069-.006h0l-.068.006-.065.021-.058.03-.048.042-.038.051-.03.059-.018.066-.006.072h0l.006.072.018.066.03.057.038.05.048.043.058.032.065.021.068.006" transform="translate(-1118.406 -161.15)"/><path class="d" d="M1133.4,168.512h.843l.3-1.7.011-.065.018-.066.018-.066.024-.066.03-.066.035-.063.039-.06.048-.057.053-.051.06-.048.068-.045.078-.036.087-.029.1-.024.1-.018.117-.006h.075l.135-.768-.084.006-.081.009-.075.015-.072.021-.066.024-.062.031-.06.033-.056.036-.055.042-.051.042-.048.048-.048.048-.045.051-.044.057-.045.054-.042.06.09-.541h-.84l-.559,3.2Z" transform="translate(-1110.391 -157.423)"/><path class="e" d="M1133.4,168.512h.843l.3-1.7h0l.011-.065.018-.066.018-.066.024-.066.03-.066.035-.063.039-.06.048-.057.053-.051.06-.048.068-.045.078-.036.087-.029.1-.024.1-.018.117-.006h.075l.135-.768h0l-.084.006-.081.009-.075.015-.072.021-.066.024-.062.031-.06.033-.056.036-.055.042-.051.042-.048.048-.048.048-.045.051-.044.057-.045.054-.042.06.09-.541h-.84l-.559,3.2h0" transform="translate(-1110.391 -157.423)"/><path class="d" d="M1113.3,168.512h.858l.287-1.7.012-.065.015-.063.015-.063.021-.06.024-.06.03-.057.035-.054.042-.051.048-.045.054-.044.065-.036.072-.033.084-.027.092-.023.1-.015.117-.009h.008l.012,0,.015,0h.015l.016,0,.012,0,.008,0h0l0-.012.008-.036.012-.054.015-.066.021-.078.021-.084.028-.084.026-.084.025-.057.03-.057.029-.056.03-.051.027-.045.021-.036.015-.021.006-.009h0l-.012,0-.015,0-.021,0h-.021l-.024,0-.021,0h-.021l-.093.006-.083.009-.078.015-.072.018-.069.024-.062.03-.057.029-.054.036-.051.039-.048.045-.044.045-.045.05-.045.051-.042.057-.045.059-.045.06.108-.541h-.858l-.559,3.2Z" transform="translate(-1098.207 -157.423)"/><path class="e" d="M1113.3,168.512h.858l.287-1.7h0l.012-.065.015-.063.015-.063.021-.06.024-.06.03-.057.035-.054.042-.051.048-.045.054-.044.065-.036.072-.033.084-.027.092-.023.1-.015.117-.009h.008l.012,0,.015,0h.015l.016,0,.012,0,.008,0h0l0-.012.008-.036.012-.054.015-.066.021-.078.021-.084.028-.084.026-.084h0l.025-.057.03-.057.029-.056.03-.051.027-.045.021-.036.015-.021.006-.009h0l-.012,0-.015,0-.021,0h-.021l-.024,0-.021,0h-.021l-.093.006-.083.009-.078.015-.072.018-.069.024-.062.03-.057.029-.054.036-.051.039-.048.045-.044.045-.045.05-.045.051-.042.057-.045.059-.045.06.108-.541h-.858l-.559,3.2h0" transform="translate(-1098.207 -157.423)"/><path class="b" d="M1146.645,180.965v-.012l.024-.078.042-.069.051-.06.062-.048.072-.036.078-.021.084-.009.085.009.077.021.072.036.062.048.051.06.042.069.025.078v.012h-.087l-.018-.062-.03-.057-.039-.051-.048-.042-.056-.033-.066-.021-.069-.006-.068.006-.065.021-.058.033-.048.042-.038.051-.03.057-.018.062Z" transform="translate(-1118.42 -166.731)"/><path class="b" d="M1147.313,181.315v-.1h.2l.033.006.023.005.022.012.015.015.012.018.006.021,0,.027h-.059V181.3l0-.015-.005-.012-.01-.006-.008-.006-.015,0-.015,0h-.122v.06Z" transform="translate(-1118.824 -167.081)"/><path class="b" d="M1146.623,181.541l.008-.066h.087v0l-.006.063Z" transform="translate(-1118.406 -167.242)"/><path class="b" d="M1147.313,181.541v-.066h.075v.06h.075l.027-.006.021,0,.018-.006.015-.006.012-.009.006-.009.006-.014v-.006h.059l0,.021-.006.018-.009.015-.012.012Z" transform="translate(-1118.824 -167.242)"/><path class="b" d="M1148.526,181.541l-.006-.063v0h.087l.009.066Z" transform="translate(-1119.556 -167.242)"/><path class="b" d="M1146.623,181.642v.009l.008.087.024.081.042.072.051.063.062.051.072.035.078.024.084.009.084-.009.077-.024.072-.035.062-.051.051-.063.042-.072.025-.081.009-.087v-.009h-.09v.009l-.006.072-.018.066-.03.057-.039.05-.048.043-.056.033-.066.021-.069.006-.068-.006-.065-.021-.058-.033-.048-.043-.038-.05-.03-.057-.018-.066-.006-.072v-.009Z" transform="translate(-1118.406 -167.343)"/><path class="b" d="M1147.313,181.642v.174h.075v-.15h.075l.09.15h.059l-.089-.15h.021l.02-.006.019-.006.015-.012h-.285Z" transform="translate(-1118.824 -167.343)"/><path class="d" d="M1109.089,166.217l-.024-.179-.042-.159-.06-.137-.075-.12-.09-.1-.1-.083-.108-.072-.116-.054-.12-.045-.123-.03-.121-.021-.123-.012-.116,0-.242.013-.215.035-.195.054-.173.075-.15.09-.132.1-.116.113-.1.12-.083.126-.069.131-.053.129-.045.128-.033.126-.024.116-.018.111-.013.1-.015.245.009.221.033.2.05.176.073.158.086.138.1.122.117.1.125.087.135.075.141.057.146.045.15.036.149.021.149.015.147,0h.1l.092,0h.081l.078,0,.069-.006.063-.006.06-.006.054-.009.051-.009.048-.011.048-.015.044-.015.045-.019.048-.017.049-.024.048-.024.12-.735-.088.051-.083.047-.087.037-.084.033-.081.027-.083.018-.082.015-.081.012-.08.006-.078,0H1108l-.077,0-.078-.006-.078-.009-.074-.009-.078-.012-.06-.012-.06-.021-.061-.026-.053-.033-.054-.035-.048-.044-.045-.045-.042-.051-.036-.05-.032-.056-.024-.054-.021-.057-.013-.057,0-.057,0-.05.007-.039h1.939l.015-.182.044-.252.021-.227Zm-.81.275h-1.093v0h0l.008-.042.012-.063.018-.06.021-.059.027-.054.028-.051.032-.048.036-.045.039-.042.037-.036.046-.033.045-.027.052-.024.051-.017.051-.012.053-.009.058,0,.053.006.051.009.048.012.047.017.045.024.045.027.039.03.036.036.03.042.03.045.021.051.022.057.011.059.006.066,0,.072Z" transform="translate(-1093.905 -157.376)"/></g></svg>